<svg width="1733" height="976" viewBox="0 0 1733 976" fill="none" xmlns="http://www.w3.org/2000/svg">
<path d="M1230.45 299.751C1256.85 355.438 1233.1 421.978 1177.41 448.373C1121.73 474.767 1055.19 451.021 1028.79 395.335C1002.4 339.648 1026.14 273.108 1081.83 246.713C1137.52 220.319 1204.06 244.064 1230.45 299.751Z" fill="#55CD4C"/>
<path d="M1150.24 485.684L1148.72 455.31L1195.51 433.133L1223.5 450.958L1150.24 485.684Z" fill="#55CD4C"/>
<path d="M1707.53 448.913L1522.06 732.847H1596.97V683.309H1717.19V830.481C1613.59 789.022 1479.82 755.23 1326.15 732.303L1503.94 460.995H1441.11V510.533H1320.89V361.921H1707.53V448.913Z" fill="white"/>
<path fill-rule="evenodd" clip-rule="evenodd" d="M277.288 361.921C327.631 361.921 366.898 372.191 395.09 392.731C423.282 413.271 437.378 442.671 437.378 480.932C437.378 504.694 431.74 524.831 420.463 541.343C409.186 557.453 395.895 569.736 380.591 578.194C365.689 586.248 351.191 591.686 337.095 594.505V600.546C365.689 603.365 391.466 612.427 414.422 627.731C437.378 643.035 448.856 670.421 448.856 709.89C448.856 714.542 448.662 719.057 448.277 723.436C271.182 745.568 117.027 781.73 0 827.503V732.847H30.2061V460.995H0V361.921H277.288ZM199.357 732.847H236.208C247.888 732.847 256.547 729.826 262.186 723.784C268.226 717.341 271.247 707.474 271.247 694.184V667.603C271.247 654.312 268.227 644.646 262.186 638.605C256.547 632.161 247.888 628.939 236.208 628.939H199.357V732.847ZM199.357 560.071H231.979C243.659 560.071 252.318 557.05 257.956 551.009C263.997 544.565 267.018 534.698 267.018 521.407V499.659C267.018 486.369 263.997 476.703 257.956 470.661C252.318 464.218 243.659 460.995 231.979 460.995H199.357V560.071Z" fill="white"/>
<path d="M1300.76 728.64C1261.84 723.212 1221.72 718.473 1180.55 714.473V677.268H1300.76V728.64Z" fill="white"/>
<path d="M1181.75 460.995H1126.18V709.671C1071.34 705.305 1014.83 702.231 957.023 700.561V460.995H926.818V361.921H1181.75V460.995Z" fill="white"/>
<path d="M686.764 460.995H665.619L701.262 554.633H707.303L742.946 460.995H721.802V361.921H907.265V460.995H883.1L766.506 670.019V700.188C708.737 701.627 652.237 704.468 597.354 708.598V670.019L477.136 460.995H452.972V361.921H686.764V460.995Z" fill="white"/>
<path d="M92.903 940.188C90.1169 940.968 86.7799 941.774 82.892 942.605C79.0041 943.436 75.2818 944.092 71.7251 944.573L43.3839 869.582C45.6287 868.095 48.5103 866.429 52.0288 864.585C55.6269 862.719 59.4972 860.906 63.6398 859.145C67.76 857.304 71.7705 855.837 75.6711 854.745C79.8901 853.564 84.1919 852.831 88.5765 852.547C93.0408 852.242 97.2344 852.655 101.157 853.789C102.476 855.737 103.573 857.662 104.449 859.563C105.302 861.384 105.974 863.171 106.464 864.922C107.713 869.38 107.821 873.599 106.79 877.579C105.815 881.458 104.042 885.088 101.469 888.469C107.191 890.816 111.911 893.873 115.627 897.639C119.422 901.384 121.833 905.087 122.859 908.749C123.929 912.57 123.727 916.446 122.252 920.379C120.836 924.21 117.779 927.856 113.082 931.317C108.386 934.779 101.659 937.735 92.903 940.188ZM76.5424 899.7C81.4904 895.91 84.9419 891.681 86.8968 887.013C88.8517 882.345 89.3164 878.18 88.2909 874.518C87.6221 872.13 86.3515 869.739 84.4791 867.345C82.6863 864.928 80.5544 863.293 78.0834 862.44C77.0486 862.729 75.8991 863.223 74.635 863.92C73.4282 864.516 72.1641 865.213 70.8427 866.013L76.5424 899.7ZM94.111 930.707C94.7478 930.528 95.6633 930.272 96.8573 929.937C98.0291 929.523 99.2009 929.109 100.373 928.695C101.522 928.202 102.313 927.809 102.746 927.516C103.167 925.338 103.391 922.613 103.419 919.343C103.505 915.971 103.058 912.534 102.077 909.031C101.386 906.564 100.387 904.225 99.0818 902.015C97.8558 899.783 96.2143 897.753 94.1572 895.926C91.8073 897.957 89.2139 899.885 86.3769 901.71C83.5971 903.433 80.7155 905.098 77.732 906.706L82.027 932.159C84.1732 932.159 86.2461 932.051 88.2457 931.834C90.325 931.595 92.2801 931.219 94.111 930.707Z" fill="white"/>
<path d="M194.312 913.643C188.018 915.044 182.324 915.718 177.231 915.666C172.138 915.613 167.699 914.695 163.915 912.912C162.471 909.846 161.3 907.058 160.402 904.547C159.568 901.938 158.89 899.464 158.37 897.124C156.772 889.942 156.398 883.123 157.248 876.667C158.178 870.193 159.903 864.431 162.421 859.383C164.921 854.253 167.794 850.226 171.039 847.302C174.635 847.857 178.333 848.686 182.136 849.788C186 850.791 189.655 852.18 193.098 853.954C196.542 855.728 199.492 857.951 201.95 860.623C204.39 863.213 206.013 866.324 206.821 869.955C207.665 873.748 207.689 877.088 206.891 879.975C206.157 882.764 204.198 885.19 201.016 887.253C197.833 889.316 192.974 891.075 186.438 892.53C183.694 893.14 181.004 893.611 178.368 893.944C175.813 894.258 173.562 894.42 171.617 894.43C170.927 898.564 171.041 902.688 171.956 906.804C173.866 906.633 175.928 906.386 178.143 906.062C180.34 905.658 182.447 905.232 184.464 904.783C188.257 903.939 192.067 902.795 195.895 901.35C199.786 899.807 203.588 897.86 207.299 895.51L213.543 906.443C210.548 908.21 207.402 909.672 204.102 910.83C200.803 911.987 197.539 912.925 194.312 913.643ZM177.882 887.192C180.949 886.51 183.979 885.666 186.974 884.661C190.049 883.638 192.703 882.624 194.935 881.62C194.818 879.952 194.598 878.392 194.275 876.939C193.628 874.034 192.65 871.542 191.341 869.462C190.094 867.283 188.708 865.432 187.183 863.908C183.329 867.9 180.277 871.881 178.027 875.854C175.858 879.809 174.107 883.925 172.772 888.202C173.597 888.104 174.453 887.955 175.34 887.758C176.228 887.56 177.075 887.372 177.882 887.192Z" fill="white"/>
<path d="M328.165 886.449L320.052 859.736L287.499 811.023L314.535 803.362L331.339 846.152L332.441 845.978L343.131 799.221L353.478 800.348L340.248 853.281L340.219 883.289L328.165 886.449Z" fill="white"/>
<path d="M414.87 875.074C409.046 875.804 403.997 875.728 399.721 874.848C395.537 874.039 392.045 872.768 389.246 871.036C388.178 867.838 387.29 864.741 386.582 861.747C385.945 858.661 385.447 855.683 385.088 852.812C384.368 847.07 384.521 841.636 385.544 836.509C386.65 831.371 388.197 826.762 390.185 822.68C392.245 818.507 394.433 815.025 396.75 812.235C399.056 809.364 401.055 807.364 402.746 806.235C406.674 807.659 410.612 809.499 414.56 811.754C418.508 814.008 422.185 816.755 425.59 819.994C429.077 823.223 432.006 826.98 434.375 831.266C436.745 835.551 438.28 840.482 438.978 846.06C439.687 851.72 439.499 856.534 438.413 860.502C437.328 864.471 434.934 867.645 431.233 870.025C427.543 872.487 422.088 874.17 414.87 875.074ZM406.885 865.202C410.002 864.812 413.093 864.216 416.159 863.416C419.296 862.523 422.003 861.517 424.279 860.399C424.606 857.692 424.769 855.005 424.769 852.339C424.768 849.673 424.608 847.069 424.29 844.526C423.313 836.734 420.779 829.803 416.686 823.734C412.391 826.688 408.747 830.519 405.754 835.226C402.751 839.852 400.543 844.835 399.129 850.178C397.787 855.428 397.43 860.555 398.057 865.559C400.743 865.722 403.686 865.603 406.885 865.202Z" fill="white"/>
<path d="M493.106 865.932C492.612 865.977 491.778 865.93 490.603 865.79C489.435 865.732 488.593 865.602 488.076 865.401C485.97 863.271 484.079 860.332 482.404 856.585C480.722 852.756 479.252 848.533 477.995 843.918C476.73 839.219 475.664 834.42 474.796 829.519C473.927 824.618 473.205 819.953 472.63 815.523C472.046 811.011 471.603 807.109 471.298 803.816L495.822 799.68C495.772 806.326 495.774 812.179 495.826 817.238C495.879 822.298 496.119 827.132 496.545 831.742C496.887 835.446 497.357 839.18 497.954 842.944C498.626 846.617 499.501 850.688 500.578 855.154C504.123 853.996 506.983 852.154 509.157 849.628C511.406 847.013 513.119 843.99 514.296 840.561C515.548 837.041 516.332 833.399 516.648 829.634C516.964 825.869 516.958 822.216 516.631 818.677C516.57 818.018 516.457 817.24 516.291 816.342C516.199 815.354 515.927 813.761 515.475 811.561C515.097 809.271 514.452 805.886 513.539 801.404L539.586 794.886L537.61 859.699L525.488 861.941L520.85 838.709L519.985 838.789C517.5 847.819 514.003 854.452 509.497 858.688C504.991 862.923 499.527 865.338 493.106 865.932Z" fill="white"/>
<path d="M589.593 856.483L579.617 795.465L605.862 789.8L604.438 811.747L605.552 811.681C608.352 804.475 611.733 798.683 615.696 794.306C619.658 789.929 623.95 787.602 628.571 787.327C630.139 787.233 631.68 787.389 633.195 787.796C635.231 789.993 637.029 793.074 638.591 797.039C640.148 800.921 641.484 805.272 642.6 810.091C643.715 814.911 644.632 819.866 645.35 824.958C646.063 829.967 646.64 834.777 647.081 839.388C647.517 843.917 647.833 847.832 648.03 851.133L625.86 854.319C625.383 846.315 624.887 839.388 624.372 833.539C623.857 827.69 623.29 822.341 622.669 817.492C622.126 812.555 621.457 807.585 620.661 802.581C619.128 803.252 617.376 804.433 615.407 806.124C613.52 807.81 611.651 810.489 609.8 814.16C607.948 817.832 606.307 822.94 604.876 829.485C603.44 835.947 602.408 844.332 601.781 854.638L589.593 856.483Z" fill="white"/>
<path d="M728.6 875.206C724.055 875.335 719.737 874.713 715.646 873.34C711.557 872.05 707.282 870.021 702.821 867.253L706.116 860.957C713.561 863.972 719.846 865.406 724.969 865.261C729.679 865.128 733.071 863.709 735.145 861.004C737.301 858.296 738.321 854.877 738.204 850.745C738.197 850.497 738.144 850.085 738.045 849.509C738.031 849.013 737.918 847.941 737.705 846.293C737.574 844.56 737.251 841.923 736.737 838.381C736.304 834.755 735.666 829.77 734.825 823.426L733.833 823.454C730.776 832.306 726.576 838.752 721.232 842.79C715.886 846.746 709.907 848.817 703.296 849.004C702.801 849.018 701.971 848.918 700.807 848.703C699.645 848.57 698.813 848.387 698.31 848.153C695.169 845.265 692.564 840.914 690.498 835.101C688.511 829.203 687.413 822.535 687.202 815.098C687.029 808.983 687.67 803.879 689.126 799.786C690.581 795.692 693.139 792.56 696.799 790.389C700.541 788.215 705.677 787.036 712.205 786.851C715.593 786.755 718.786 787.078 721.784 787.82C724.865 788.56 727.71 789.72 730.318 791.3L732.943 787.628L756.64 783.36L750.049 852.89C749.408 859.442 747.242 864.755 743.554 868.829C739.947 872.9 734.963 875.026 728.6 875.206ZM711.441 838.726C713.004 838.433 714.925 837.634 717.203 836.329C719.48 834.942 721.737 832.893 723.976 830.183C726.215 827.474 728.017 823.949 729.383 819.61C730.829 815.186 731.462 809.793 731.282 803.43C731.256 802.521 731.19 801.654 731.084 800.83C731.058 799.921 730.99 798.972 730.879 797.983C729.022 796.63 726.843 795.616 724.343 794.943C721.925 794.267 719.56 793.962 717.246 794.027C714.189 794.114 711.602 794.766 709.486 795.984C709.132 798.061 708.797 800.841 708.482 804.323C708.25 807.803 708.201 811.94 708.337 816.733C708.41 819.294 708.613 822.1 708.948 825.151C709.28 828.118 709.646 830.837 710.047 833.307C710.53 835.774 710.995 837.58 711.441 838.726Z" fill="white"/>
<path d="M806.61 868.836L797.276 861.439C799.911 859.278 801.885 857.036 803.197 854.716C804.509 852.478 805.447 849.869 806.012 846.891L805.515 846.645C804.938 847.061 804.32 847.394 803.66 847.646C803 847.897 802.174 848.024 801.182 848.029C799.115 848.039 797.457 847.013 796.207 844.952C794.958 842.891 794.325 840.083 794.308 836.529C794.291 832.726 795.021 829.871 796.501 827.962C797.979 825.972 800.868 824.966 805.167 824.946C807.564 824.935 809.756 825.297 811.744 826.032C813.814 826.766 815.389 827.71 816.469 828.862C816.807 830.431 817.021 832.083 817.112 833.819C817.285 835.554 817.376 837.372 817.385 839.274C817.41 844.647 816.608 849.983 814.979 855.281C813.351 860.662 810.561 865.18 806.61 868.836Z" fill="white"/>
<path d="M920.278 848.3L917.041 766.441L946.598 765.516L935.345 838.729L967.195 835.892L966.295 848.642L920.278 848.3Z" fill="white"/>
<path d="M1010.99 780.547C1007.86 780.38 1005.19 779.121 1003 776.769C1000.89 774.34 999.923 771.556 1000.09 768.419C1000.26 765.282 1001.51 762.659 1003.86 760.548C1006.3 758.36 1009.08 757.349 1012.22 757.516C1015.35 757.682 1017.98 758.98 1020.08 761.41C1022.28 763.762 1023.29 766.506 1023.12 769.643C1022.95 772.78 1021.65 775.443 1019.22 777.631C1016.87 779.742 1014.13 780.714 1010.99 780.547ZM1001.49 851.939L998.43 790.31L1025.15 787.632L1013.81 851.476L1001.49 851.939Z" fill="white"/>
<path d="M1082.44 856.996L1059.73 793.675L1086.5 791.643L1091 839.625L1091.99 839.701L1111.57 793.956L1121.37 797.451L1092.58 856.164L1082.44 856.996Z" fill="white"/>
<path d="M1178.55 866.622C1172.14 865.943 1166.53 864.767 1161.72 863.094C1156.91 861.421 1152.99 859.136 1149.97 856.239C1149.58 852.872 1149.36 849.856 1149.31 847.191C1149.35 844.452 1149.5 841.89 1149.75 839.506C1150.53 832.19 1152.35 825.608 1155.21 819.759C1158.16 813.92 1161.63 809.009 1165.62 805.026C1169.63 800.961 1173.64 798.061 1177.64 796.324C1180.87 797.996 1184.12 799.96 1187.37 802.217C1190.71 804.4 1193.73 806.881 1196.43 809.661C1199.13 812.44 1201.22 815.488 1202.69 818.803C1204.18 822.037 1204.73 825.503 1204.34 829.202C1203.93 833.066 1202.88 836.239 1201.21 838.722C1199.62 841.131 1196.99 842.806 1193.32 843.747C1189.65 844.688 1184.48 844.805 1177.82 844.1C1175.03 843.804 1172.33 843.393 1169.72 842.868C1167.2 842.352 1165.01 841.788 1163.17 841.177C1161.2 844.875 1159.99 848.82 1159.54 853.013C1161.41 853.46 1163.44 853.883 1165.64 854.282C1167.85 854.6 1169.99 854.867 1172.04 855.085C1175.91 855.494 1179.88 855.624 1183.97 855.475C1188.15 855.253 1192.38 854.62 1196.64 853.575L1199.08 865.928C1195.67 866.649 1192.22 867.031 1188.73 867.077C1185.23 867.122 1181.84 866.971 1178.55 866.622ZM1171.41 836.314C1174.54 836.645 1177.68 836.811 1180.84 836.813C1184.08 836.824 1186.92 836.709 1189.35 836.468C1189.77 834.85 1190.06 833.301 1190.22 831.822C1190.53 828.862 1190.4 826.188 1189.82 823.799C1189.33 821.337 1188.61 819.14 1187.65 817.21C1182.73 819.764 1178.56 822.565 1175.16 825.614C1171.85 828.671 1168.88 832.013 1166.25 835.642C1167.06 835.811 1167.92 835.944 1168.82 836.04C1169.73 836.135 1170.59 836.227 1171.41 836.314Z" fill="white"/>
<path d="M1288.24 877.966L1289.91 869.82L1333.31 812.566L1304.63 804.987L1305.57 796.724L1360.6 806.74L1360.29 819.749L1303.21 870.681L1349.57 873.666L1348.3 886.396L1288.24 877.966Z" fill="white"/>
<path d="M1408.01 900.298C1401.68 899.054 1396.2 897.385 1391.56 895.293C1386.91 893.2 1383.22 890.578 1380.47 887.426C1380.37 884.037 1380.42 881.014 1380.61 878.354C1380.89 875.63 1381.26 873.091 1381.72 870.739C1383.14 863.52 1385.54 857.124 1388.91 851.553C1392.36 845.997 1396.25 841.412 1400.59 837.799C1404.93 834.105 1409.18 831.57 1413.33 830.194C1416.4 832.146 1419.45 834.39 1422.49 836.925C1425.63 839.395 1428.42 842.134 1430.86 845.142C1433.3 848.149 1435.11 851.37 1436.29 854.803C1437.49 858.155 1437.72 861.656 1437.01 865.306C1436.26 869.118 1434.94 872.187 1433.05 874.511C1431.26 876.771 1428.49 878.206 1424.75 878.818C1421 879.431 1415.85 879.091 1409.28 877.799C1406.52 877.257 1403.86 876.609 1401.32 875.855C1398.85 875.117 1396.72 874.362 1394.94 873.59C1392.65 877.099 1391.1 880.922 1390.28 885.059C1392.1 885.669 1394.09 886.271 1396.25 886.863C1398.42 887.375 1400.52 887.83 1402.55 888.229C1406.36 888.979 1410.31 889.46 1414.4 889.674C1418.58 889.822 1422.84 889.565 1427.19 888.903L1428.52 901.422C1425.06 901.839 1421.59 901.915 1418.11 901.651C1414.62 901.387 1411.26 900.936 1408.01 900.298ZM1403.58 869.476C1406.66 870.082 1409.78 870.526 1412.92 870.808C1416.15 871.105 1418.99 871.242 1421.44 871.218C1422 869.643 1422.42 868.126 1422.71 866.666C1423.29 863.746 1423.39 861.07 1423.03 858.64C1422.76 856.144 1422.23 853.892 1421.45 851.884C1416.32 853.992 1411.92 856.414 1408.27 859.15C1404.69 861.901 1401.44 864.968 1398.5 868.35C1399.29 868.59 1400.13 868.798 1401.03 868.974C1401.92 869.149 1402.77 869.317 1403.58 869.476Z" fill="white"/>
<path d="M1473.38 924.518L1469.75 916.143C1474.02 914.946 1477.02 913.574 1478.75 912.028C1480.45 910.562 1481.54 908.864 1481.99 906.933C1482.49 904.841 1482.4 902.697 1481.73 900.5C1481.14 898.322 1480.27 896.077 1479.12 893.766C1477.98 891.375 1476.87 888.903 1475.77 886.35C1474.7 883.717 1473.9 880.98 1473.38 878.14C1472.96 875.238 1473.14 872.178 1473.9 868.96C1475.3 863.006 1478.08 858.098 1482.22 854.236C1486.36 850.373 1491.24 847.152 1496.86 844.574L1513.51 862.526C1509.06 864.107 1505.2 866.082 1501.92 868.45C1498.72 870.837 1496.71 873.8 1495.87 877.34C1495.3 879.753 1495.29 882.13 1495.84 884.469C1496.47 886.827 1497.27 889.182 1498.25 891.536C1499.32 893.828 1500.13 896.144 1500.68 898.482C1501.33 900.76 1501.39 903.025 1500.86 905.278C1499.49 911.07 1496.37 915.471 1491.49 918.481C1486.62 921.491 1480.58 923.504 1473.38 924.518Z" fill="white"/>
<path d="M1545.85 930.617L1554.3 880.952L1542.89 879.411L1545.63 866.916L1556.27 869.397L1559.19 852.182L1590.02 856.615L1582.18 875.278L1594.17 878.01L1591.56 885.906L1578.4 884.132L1557.97 932.872L1545.85 930.617Z" fill="white"/>
<path d="M1609.28 974.786C1607 974.023 1604.8 972.802 1602.66 971.123C1600.57 969.549 1598.67 967.427 1596.95 964.756L1602.49 959.947C1604.76 961.757 1607.15 963.083 1609.66 963.926C1613.1 965.084 1616.45 965.119 1619.69 964.029C1623.02 962.966 1625.76 960.397 1627.91 956.325L1623.45 889.025L1649.91 893.601L1642.49 941.343L1643.44 941.659L1673.65 901.973L1682.3 907.759L1635.22 963.362C1631.87 967.379 1628.78 970.352 1625.95 972.279C1623.17 974.311 1620.46 975.494 1617.82 975.827C1615.18 976.161 1612.33 975.814 1609.28 974.786Z" fill="white"/>
<path d="M208.179 63.6505C231.22 117.073 206.591 179.059 153.169 202.1C99.7463 225.141 37.7605 200.512 14.7194 147.089C-8.32157 93.667 16.3074 31.6812 69.7298 8.64018C123.152 -14.4008 185.138 10.2281 208.179 63.6505Z" fill="#4DC9E1"/>
<path d="M126.28 236.394L125.865 207.686L170.751 188.327L196.565 206.08L126.28 236.394Z" fill="#4DC9E1"/>
<path d="M516.178 420.683C493.05 461.557 441.167 475.942 400.293 452.814C359.42 429.686 345.034 377.803 368.162 336.929C391.29 296.056 443.173 281.67 484.047 304.798C524.92 327.926 539.306 379.81 516.178 420.683Z" fill="#FCB058"/>
<path d="M365.12 452.242L383.385 437.975L417.727 457.407L418.896 482.67L365.12 452.242Z" fill="#FCB058"/>
<path d="M1715.2 418.186C1639.21 433.282 1572.66 386.806 1548.88 361.681L1696.28 179.308L1715.2 418.186Z" fill="#D94D67"/>
<path d="M1709.55 147.917L1711.75 153.176L1717.25 151.668L1718.08 157.31L1723.78 157.217L1723.18 162.888L1728.72 164.215L1726.73 169.558L1731.77 172.223L1728.51 176.902L1732.73 180.738L1728.41 184.459L1731.54 189.223L1726.43 191.753L1728.28 197.147L1722.7 198.326L1723.16 204.011L1717.46 203.766L1716.48 209.384L1711.02 207.73L1708.68 212.929L1703.81 209.969L1700.24 214.422L1696.26 210.343L1691.7 213.77L1688.85 208.828L1683.59 211.014L1682.06 205.519L1676.42 206.326L1676.3 200.625L1670.63 200.003L1671.94 194.452L1666.61 192.44L1669.25 187.389L1664.59 184.113L1668.41 179.88L1664.7 175.546L1669.45 172.395L1666.94 167.276L1672.33 165.407L1671.17 159.823L1676.85 159.352L1677.12 153.656L1682.74 154.613L1684.41 149.162L1689.62 151.487L1692.6 146.623L1697.06 150.17L1701.15 146.199L1704.6 150.745L1709.55 147.917Z" fill="#FDB252"/>
</svg>
