<svg width="25" height="25" viewBox="0 0 25 25" fill="none" xmlns="http://www.w3.org/2000/svg">
<path d="M21.9776 20.9779L17.2836 16.2848C18.6441 14.6514 19.3225 12.5563 19.1777 10.4355C19.0329 8.31459 18.076 6.33119 16.5061 4.89786C14.9362 3.46453 12.8742 2.69163 10.7489 2.73993C8.62365 2.78823 6.59883 3.65402 5.09566 5.15719C3.59249 6.66035 2.7267 8.68517 2.6784 10.8104C2.6301 12.9357 3.40301 14.9977 4.83634 16.5676C6.26967 18.1376 8.25306 19.0944 10.3739 19.2392C12.4948 19.384 14.5898 18.7056 16.2232 17.3451L20.9164 22.0391C20.9861 22.1088 21.0688 22.1641 21.1598 22.2018C21.2509 22.2395 21.3484 22.2589 21.447 22.2589C21.5455 22.2589 21.6431 22.2395 21.7342 22.2018C21.8252 22.1641 21.9079 22.1088 21.9776 22.0391C22.0473 21.9695 22.1026 21.8867 22.1403 21.7957C22.178 21.7046 22.1974 21.6071 22.1974 21.5085C22.1974 21.41 22.178 21.3124 22.1403 21.2213C22.1026 21.1303 22.0473 21.0476 21.9776 20.9779ZM4.19699 11.0085C4.19699 9.67349 4.59287 8.36845 5.33457 7.25842C6.07627 6.14838 7.13048 5.28322 8.36388 4.77233C9.59728 4.26144 10.9545 4.12776 12.2639 4.38821C13.5732 4.64866 14.776 5.29154 15.72 6.23554C16.664 7.17955 17.3068 8.38228 17.5673 9.69166C17.8277 11.001 17.6941 12.3582 17.1832 13.5916C16.6723 14.825 15.8071 15.8792 14.6971 16.6209C13.5871 17.3626 12.282 17.7585 10.947 17.7585C9.15739 17.7565 7.44165 17.0447 6.17621 15.7793C4.91077 14.5139 4.19898 12.7981 4.19699 11.0085Z" fill="#212528"/>
</svg>
